<svg xmlns="http://www.w3.org/2000/svg" viewBox="0 0 22.68 15.94"><defs><style>.cls-1{fill:#fff;}</style></defs><g id="Слой_2" data-name="Слой 2"><g id="Слой_1-2" data-name="Слой 1"><path class="cls-1" d="M.8,10.62V1a1,1,0,0,1,1-1h9.64a1,1,0,0,1,1,1v9.65a.32.32,0,0,1-.32.32H1.12a.32.32,0,0,1-.32-.32Zm7.78,3.3a2,2,0,1,1-2-2,2,2,0,0,1,2,2Zm-1,0a1,1,0,1,0-1,1,1,1,0,0,0,1-1Zm-2.74-2H.32a.32.32,0,0,0-.32.32v1a.32.32,0,0,0,.32.32H3.94a2.61,2.61,0,0,1,.9-1.63Zm14.28,2a2,2,0,1,1-2-2,2,2,0,0,1,2,2Zm-1,0a1,1,0,1,0-1,1,1,1,0,0,0,1-1Zm4.57-1.69v1a.33.33,0,0,1-.33.32H19.73a2.66,2.66,0,0,0-5.26,0H9.2a2.66,2.66,0,0,0-.9-1.63h5V2.66A.65.65,0,0,1,14,2H17a2.58,2.58,0,0,1,2.14,1.14l2,2.92a2.56,2.56,0,0,1,.45,1.44v4.4h.78a.33.33,0,0,1,.33.32ZM19.39,6.14,17.82,3.9a.35.35,0,0,0-.27-.14H15.1a.33.33,0,0,0-.33.33V6.33a.33.33,0,0,0,.33.32h4a.32.32,0,0,0,.26-.51Z"/></g></g></svg>