<svg xmlns="http://www.w3.org/2000/svg" viewBox="0 0 22.68 22.68"><defs><style>.cls-1{fill:#fff;}</style></defs><g id="Слой_2" data-name="Слой 2"><g id="Слой_1-2" data-name="Слой 1"><polygon class="cls-1" points="14.28 4.13 18.55 8.4 19.62 7.33 15.35 3.06 14.28 4.13 14.28 4.13"/><path class="cls-1" d="M20.15,6.8l2-2a1.62,1.62,0,0,0,.49-1.18,1.66,1.66,0,0,0-.49-1.18L20.27.5A1.66,1.66,0,0,0,19.09,0,1.62,1.62,0,0,0,17.91.5l-2,2L20.15,6.8Z"/><path class="cls-1" d="M.82,17.68h0L0,22.23a.42.42,0,0,0,.1.34.4.4,0,0,0,.27.11H.45l4.38-.77-4-4.22Z"/><polygon class="cls-1" points="3.13 19.02 3.14 19.01 15.61 6.54 15.61 6.53 13.74 4.66 1.31 17.1 3.13 19.02 3.13 19.02"/><path class="cls-1" d="M16.15,7.07h0L3.67,19.54l0,0,1.82,1.92L18,8.94,16.15,7.07Z"/><path class="cls-1" d="M10.57,6.29l-6-6A1.15,1.15,0,0,0,3,.33L.33,3a1.15,1.15,0,0,0,0,1.61l.54.53L2.74,3.27a.37.37,0,0,1,.53,0,.38.38,0,0,1,0,.54L1.4,5.68l.54.53L3.27,4.87a.38.38,0,0,1,.54.54L2.47,6.75,3,7.28,4.87,5.41a.38.38,0,0,1,.54,0,.37.37,0,0,1,0,.53L3.54,7.81l.53.54L5.41,7a.37.37,0,0,1,.53,0,.38.38,0,0,1,0,.54L4.61,8.88l.53.54L7,7.55a.38.38,0,0,1,.54,0,.39.39,0,0,1,0,.53L5.68,10l.61.61a.36.36,0,0,0,.27.12.35.35,0,0,0,.26-.12l3.75-3.74a.39.39,0,0,0,0-.53"/><path class="cls-1" d="M18.77,18a.71.71,0,0,0-.53.22.74.74,0,0,0,0,1.06.75.75,0,0,0,1.06-1.06.74.74,0,0,0-.53-.22"/><path class="cls-1" d="M22.42,18.14,16.2,11.93a.37.37,0,0,0-.53,0l-3.74,3.74a.37.37,0,0,0,0,.53l.69.7L14,15.56a.39.39,0,0,1,.53,0,.38.38,0,0,1,0,.54l-1.33,1.33.53.54,1.87-1.87a.38.38,0,0,1,.54,0,.37.37,0,0,1,0,.53L14.23,18.5l3.91,3.92a.89.89,0,0,0,1.26,0l3-3a.91.91,0,0,0,0-1.26m-2.59,1.69a1.47,1.47,0,0,1-1.06.44,1.51,1.51,0,1,1,1.06-.44"/></g></g></svg>