<svg xmlns="http://www.w3.org/2000/svg" viewBox="0 0 22.68 22.68"><defs><style>.cls-1{fill:#fff;}</style></defs><g id="Слой_2" data-name="Слой 2"><g id="Слой_1-2" data-name="Слой 1"><path class="cls-1" d="M4.14,14.62l-.79-.79L.61,16.58l1.17,1.17a2.43,2.43,0,0,0-1,.63,2.51,2.51,0,0,0,0,3.56,2.46,2.46,0,0,0,1.78.74,2.5,2.5,0,0,0,1.78-.74,2.45,2.45,0,0,0,.62-1.05L6.1,22.07l2.74-2.74-.78-.79.66-.67-2.88-5Z"/><path class="cls-1" d="M6.81,12,9.7,16.9l1-1L7.77,11Z"/><path class="cls-1" d="M8.75,10l2.88,5,1-1L9.71,9.05Z"/><path class="cls-1" d="M10.68,8.08,13.57,13l1-1L11.64,7.11Z"/><path class="cls-1" d="M12.62,6.14l2.89,5,1-1-2.89-5Z"/><path class="cls-1" d="M21.3,4.12a2,2,0,0,0,.62-.43,2.08,2.08,0,0,0,0-2.94A2.09,2.09,0,0,0,19,.75a2,2,0,0,0-.43.63L17.18,0,14.44,2.74l.79.79-.68.67,2.89,5,1.71-1.7.78.79,2.75-2.75Z"/><path class="cls-1" d="M6.27,11l-1.15.67.72,1.23,1-1Z"/><path class="cls-1" d="M9.27,18.8l1.15-.67L9.7,16.9l-1,1Z"/><path class="cls-1" d="M8.2,9.08l-1.15.67L7.77,11l1-1Z"/><path class="cls-1" d="M11.2,16.87l1.15-.68L11.63,15l-1,1Z"/><path class="cls-1" d="M10.14,7.15,9,7.82l.72,1.23,1-1Z"/><path class="cls-1" d="M13.14,14.93l1.15-.67L13.57,13l-1,1Z"/><path class="cls-1" d="M12.08,5.21l-1.15.67.71,1.23,1-1Z"/><path class="cls-1" d="M15.07,13l1.15-.67-.71-1.23-1,1Z"/><path class="cls-1" d="M14,3.27,12.86,4l.72,1.23,1-1Z"/><path class="cls-1" d="M17,11.06l1.15-.67-.72-1.24-1,1Z"/></g></g></svg>