<svg xmlns="http://www.w3.org/2000/svg" viewBox="0 0 10.2 8.01"><defs><style>.cls-1{fill:#fff;}</style></defs><g id="Слой_2" data-name="Слой 2"><g id="Слой_1-2" data-name="Слой 1"><path class="cls-1" d="M1,2.47l1.16.81,1.5,1,.24.17.3.22.3.18a2.45,2.45,0,0,0,.33.16,1,1,0,0,0,.28,0h0a1,1,0,0,0,.29,0,2.45,2.45,0,0,0,.33-.16L6,4.71l.31-.22.24-.17L9.22,2.47a2.74,2.74,0,0,0,.7-.7A1.54,1.54,0,0,0,10.2.91.87.87,0,0,0,9.93.27.89.89,0,0,0,9.29,0H.91A.79.79,0,0,0,.24.3,1.12,1.12,0,0,0,0,1a1.32,1.32,0,0,0,.31.77A2.78,2.78,0,0,0,1,2.47Z"/><path class="cls-1" d="M9.63,3.08c-1.25.84-2.19,1.49-2.84,2-.21.16-.39.28-.52.37a4.38,4.38,0,0,1-.54.28,1.67,1.67,0,0,1-.63.14h0a1.67,1.67,0,0,1-.62-.14,3.28,3.28,0,0,1-.54-.28L3.4,5C2.89,4.67,2,4,.57,3.08A3.41,3.41,0,0,1,0,2.58V7.1a.85.85,0,0,0,.27.64A.87.87,0,0,0,.91,8H9.29a.87.87,0,0,0,.64-.27.85.85,0,0,0,.27-.64V2.58a3.41,3.41,0,0,1-.57.5Z"/></g></g></svg>