<svg xmlns="http://www.w3.org/2000/svg" viewBox="0 0 9.41 9.39"><defs><style>.cls-1{fill:#fff;}</style></defs><g id="Слой_2" data-name="Слой 2"><g id="Слой_1-2" data-name="Слой 1"><path class="cls-1" d="M9.2,7.43,7.75,6A.77.77,0,0,0,6.68,6L6,6.73,5.8,6.65A7.48,7.48,0,0,1,4,5.37,7.48,7.48,0,0,1,2.76,3.61s0-.1-.07-.14L3.18,3l.24-.25a.75.75,0,0,0,0-1.06L2,.21A.75.75,0,0,0,.92.23L.51.64h0a2.52,2.52,0,0,0-.34.6,2.4,2.4,0,0,0-.15.6c-.19,1.59.53,3.05,2.51,5,2.73,2.73,4.92,2.52,5,2.51a2.11,2.11,0,0,0,.6-.15,2.49,2.49,0,0,0,.6-.33h0l.41-.4a.76.76,0,0,0,0-1.07Z"/></g></g></svg>