<svg xmlns="http://www.w3.org/2000/svg" viewBox="0 0 22.68 21.77"><defs><style>.cls-1{fill:#fff;}</style></defs><g id="Слой_2" data-name="Слой 2"><g id="Слой_1-2" data-name="Слой 1"><path class="cls-1" d="M5.3,4.14l9-2.46-.48-1A1.28,1.28,0,0,0,12.15.13l-8.09,4Z"/><path class="cls-1" d="M17.15,1.75a1.27,1.27,0,0,0-.34,0l-2.12.58L8.2,4.14H18.77l-.4-1.45a1.26,1.26,0,0,0-1.22-.94Z"/><path class="cls-1" d="M20.1,5H1.28a1.26,1.26,0,0,0-1,.47A1.17,1.17,0,0,0,.05,6a1.27,1.27,0,0,0,0,.34V20.5a1.27,1.27,0,0,0,1.27,1.27H20.1a1.27,1.27,0,0,0,1.27-1.27V16.94H13.81a2.16,2.16,0,0,1-2.16-2.16V12a2.16,2.16,0,0,1,1.9-2.15l.26,0h7.56V6.31A1.27,1.27,0,0,0,20.1,5Z"/><path class="cls-1" d="M22.26,11a1.31,1.31,0,0,0-.44-.26,1.16,1.16,0,0,0-.42-.07H13.81a1.27,1.27,0,0,0-1.27,1.27v2.84a1.27,1.27,0,0,0,1.27,1.27H21.4a1.42,1.42,0,0,0,.42-.07,1.5,1.5,0,0,0,.44-.26,1.27,1.27,0,0,0,.42-.94V11.94a1.25,1.25,0,0,0-.42-.94Zm-5.79,2.61a.64.64,0,0,1-.64.64h-.42a.64.64,0,0,1-.63-.64v-.42a.62.62,0,0,1,.24-.5.66.66,0,0,1,.39-.14h.42a.64.64,0,0,1,.64.64Z"/></g></g></svg>