<svg xmlns="http://www.w3.org/2000/svg" viewBox="0 0 22.68 28.98"><defs><style>.cls-1{fill:#fff;}</style></defs><g id="Слой_2" data-name="Слой 2"><g id="Слой_1-2" data-name="Слой 1"><path class="cls-1" d="M9.69,22.64a3.69,3.69,0,0,1-5.33-.37L2.47,26.45a.37.37,0,0,0,.43.5l1.38-.39a1.84,1.84,0,0,1,.47-.06,1.75,1.75,0,0,1,1.57,1l.62,1.28a.35.35,0,0,0,.33.21.37.37,0,0,0,.33-.21l3-6.64a2.18,2.18,0,0,0-.91.51Z"/><path class="cls-1" d="M13,22.64a3.62,3.62,0,0,0,4.08.61,3.72,3.72,0,0,0,1.26-1l1.88,4.18a.34.34,0,0,1-.05.38.35.35,0,0,1-.37.12l-1.38-.39a1.84,1.84,0,0,0-.47-.06,1.75,1.75,0,0,0-1.58,1l-.62,1.28a.36.36,0,0,1-.65,0l-3-6.64a2.09,2.09,0,0,1,.9.51Z"/><path class="cls-1" d="M11.34,19a7.45,7.45,0,1,1,7.45-7.45A7.46,7.46,0,0,1,11.34,19Zm10.35-7.25a3.68,3.68,0,0,1-1.11-4.85,2.23,2.23,0,0,0-.2-2.55,2.21,2.21,0,0,0-2.44-.76,3.67,3.67,0,0,1-4.48-2.16,2.28,2.28,0,0,0-4.24,0A3.68,3.68,0,0,1,4.74,3.6,2.28,2.28,0,0,0,2.1,6.91,3.69,3.69,0,0,1,1,11.76a2.25,2.25,0,0,0-.93,2.39,2.22,2.22,0,0,0,1.87,1.74A3.69,3.69,0,0,1,5,19.78,2.23,2.23,0,0,0,6.32,22a2.25,2.25,0,0,0,2.53-.38,3.68,3.68,0,0,1,5,0,2.27,2.27,0,0,0,3.81-1.84,3.69,3.69,0,0,1,3.1-3.89,2.28,2.28,0,0,0,1-4.13Z"/><path class="cls-1" d="M8.74,11a.68.68,0,0,1,1,.16l.72,1,3.21-2.34A.7.7,0,1,1,14.44,11l-3.77,2.75a.67.67,0,0,1-.41.13h-.11a.72.72,0,0,1-.46-.28L8.57,12a.68.68,0,0,1,.17-1Zm8.66.56a6.06,6.06,0,1,0-6.06,6.06,6.07,6.07,0,0,0,6.06-6.06Z"/></g></g></svg>