<svg xmlns="http://www.w3.org/2000/svg" viewBox="0 0 22.68 21.57"><defs><style>.cls-1{fill:#fff;}</style></defs><g id="Слой_2" data-name="Слой 2"><g id="Слой_1-2" data-name="Слой 1"><path class="cls-1" d="M18.24,6h-2.7V4.63h2.7V6Zm0,2.84h-2.7V7.46h2.7V8.88Zm0,2.77h-2.7V10.23h2.7v1.42Zm0,2.83h-2.7V13.07h2.7v1.41ZM13.84,6H11.15V4.63h2.69V6Zm0,2.84H11.15V7.46h2.69V8.88Zm0,2.77H11.15V10.23h2.69v1.42Zm0,2.83H11.15V13.07h2.69v1.41Zm6-13.06V0H9.45V1.43H6.57V6.81a5.93,5.93,0,0,1,3.82,5.53c0,1.34-.88,3.52-2.69,6.69-.25.44-.5.87-.75,1.27h7V16H15.4V20.3h7.28V1.43Z"/><path class="cls-1" d="M4.49,10.92a1.42,1.42,0,1,0,1.42,1.42,1.43,1.43,0,0,0-1.42-1.42Z"/><path class="cls-1" d="M4.49,15.18a2.84,2.84,0,1,1,2.83-2.84,2.85,2.85,0,0,1-2.83,2.84Zm0-7.33A4.5,4.5,0,0,0,0,12.34c0,1.92,2.85,6.71,4.49,9.23C6.13,19,9,14.26,9,12.34A4.5,4.5,0,0,0,4.49,7.85Z"/></g></g></svg>